Coordinates
version=1
nRows=24
nColumns=24
inDegrees=yes

Units are S.I. units (second, meters, Newtons, ...)
Angles are in degrees.

endheader
time	pelvis_tilt	pelvis_list	pelvis_rotation	pelvis_tx	pelvis_ty	pelvis_tz	hip_flexion_r	hip_adduction_r	hip_rotation_r	knee_angle_r	ankle_angle_r	subtalar_angle_r	mtp_angle_r	hip_flexion_l	hip_adduction_l	hip_rotation_l	knee_angle_l	ankle_angle_l	subtalar_angle_l	mtp_angle_l	lumbar_extension	lumbar_bending	lumbar_rotation
      2.49000000	     65.41306094	      4.52616600	     -1.47664593	      0.76870715	      1.02790741	     -0.28796144	      0.23377207	    -10.99236061	     -1.49068838	    -60.18385949	     18.51101672	     -7.59708924	    -28.23489004	     -1.08084837	     -2.77677186	    -12.22664228	    -66.15558648	     15.13027748	     -5.57091871	 -21970.87077825	      0.00000000	      0.00000000	      0.00000000
      2.50000000	     65.41695603	      4.53513982	     -1.46709992	      0.76890861	      1.02766183	     -0.28814374	      0.27641928	    -11.01558802	     -1.54286462	    -61.05036697	     18.54100054	     -7.61133659	    -28.30887570	     -1.10152119	     -2.73687942	    -12.26206061	    -66.15693386	     15.05194785	     -5.37130989	 -23060.64522673	      0.00000000	      0.00000000	      0.00000000
      2.51000000	     65.39430998	      4.52586276	     -1.44692354	      0.76929573	      1.02721453	     -0.28842180	      0.33979242	    -11.03253550	     -1.59176191	    -61.90426197	     18.56023603	     -7.61681686	    -28.41149761	     -1.15875371	     -2.68389790	    -12.29327516	    -66.18456422	     14.80131842	     -4.89674958	 -24183.30926935	      0.00000000	      0.00000000	      0.00000000
      2.52000000	     65.36528417	      4.51092161	     -1.42503371	      0.76942640	      1.02700958	     -0.28846295	      0.39555947	    -11.05163206	     -1.62514174	    -62.72398915	     18.57471885	     -7.60158375	    -28.53263432	     -1.21595798	     -2.62775268	    -12.32412611	    -66.22668848	     14.46390876	     -4.26193149	 -25339.32855854	      0.00000000	      0.00000000	      0.00000000
      2.53000000	     65.35681319	      4.51383046	     -1.41702056	      0.76928235	      1.02716862	     -0.28832992	      0.42163792	    -11.07803470	     -1.63834832	    -63.49494311	     18.58918184	     -7.55940966	    -28.65839897	     -1.23480945	     -2.59046269	    -12.35353701	    -66.26031068	     14.09760204	     -3.58448924	 -26529.04821176	      0.00000000	      0.00000000	      0.00000000
      2.54000000	     65.37756443	      4.54507811	     -1.43010689	      0.76918525	      1.02734107	     -0.28826684	      0.41678894	    -11.10913328	     -1.63576498	    -64.21439249	     18.60694067	     -7.49063801	    -28.77334954	     -1.21063741	     -2.58461229	    -12.37732695	    -66.26249508	     13.69297377	     -2.94334928	 -27752.68319269	      0.00000000	      0.00000000	      0.00000000
      2.55000000	     65.41031257	      4.58722683	     -1.45322900	      0.76920086	      1.02737012	     -0.28827455	      0.39993428	    -11.13400135	     -1.62794554	    -64.88991754	     18.63025374	     -7.40121348	    -28.86305017	     -1.17774300	     -2.59443423	    -12.39544773	    -66.22771458	     13.18566754	     -2.36381761	 -29010.31525958	      0.00000000	      0.00000000	      0.00000000
      2.56000000	     65.42917049	      4.61049938	     -1.46741918	      0.76912104	      1.02746894	     -0.28819183	      0.39564579	    -11.14176539	     -1.62486695	    -65.53261398	     18.66072376	     -7.30072284	    -28.91634235	     -1.18006409	     -2.59217155	    -12.40909990	    -66.16615273	     12.51343245	     -1.83559260	 -30301.89680078	      0.00000000	      0.00000000	      0.00000000
      2.57000000	     65.42023111	      4.60022602	     -1.46407033	      0.76898125	      1.02755043	     -0.28803392	      0.41670674	    -11.13205843	     -1.62996225	    -66.14855075	     18.69916141	     -7.19982164	    -28.92699088	     -1.23726784	     -2.56932431	    -12.41316952	    -66.08884488	     11.68235072	     -1.34832646	 -31627.26148370	      0.00000000	      0.00000000	      0.00000000
      2.58000000	     65.39549333	      4.57095681	     -1.45240926	      0.76912316	      1.02734253	     -0.28807406	      0.45584155	    -11.11515103	     -1.64015944	    -66.73246875	     18.74491000	     -7.10740088	    -28.89457355	     -1.32541516	     -2.54497658	    -12.39921419	    -66.00237982	     10.80638484	     -0.92143674	 -32986.14138038	      0.00000000	      0.00000000	      0.00000000
      2.59000000	     65.37849628	      4.54825170	     -1.44486460	      0.76956035	      1.02695999	     -0.28837286	      0.49190929	    -11.10166917	     -1.65100860	    -67.26783350	     18.79545931	     -7.02859497	    -28.82452766	     -1.39719479	     -2.53635626	    -12.37061519	    -65.92146722	     10.08963734	     -0.60844112	 -34378.18916685	      0.00000000	      0.00000000	      0.00000000
      2.60000000	     65.37853732	      4.54393649	     -1.44147835	      0.76981614	      1.02674531	     -0.28856453	      0.50532430	    -11.09486046	     -1.66075527	    -67.73494722	     18.84703157	     -6.96472639	    -28.72730990	     -1.42174121	     -2.53619238	    -12.34654560	    -65.87098539	      9.75019006	     -0.47511780	 -35803.00245101	      0.00000000	      0.00000000	      0.00000000
      2.61000000	     65.39198450	      4.55791950	     -1.43633535	      0.76961466	      1.02688938	     -0.28842147	      0.49105734	    -11.09303894	     -1.66989698	    -68.12249820	     18.89583503	     -6.91497506	    -28.61673354	     -1.39643826	     -2.53203861	    -12.34328844	    -65.86158002	      9.92614536	     -0.56813906	 -37260.14554070	      0.00000000	      0.00000000	      0.00000000
      2.62000000	     65.41257102	      4.58757480	     -1.42887168	      0.76926471	      1.02728314	     -0.28821616	      0.46088256	    -11.09503503	     -1.67894029	    -68.43307018	     18.93910397	     -6.87836895	    -28.50769194	     -1.33955789	     -2.52767604	    -12.35796919	    -65.87355919	     10.61276846	     -0.88928241	 -38749.16347546	      0.00000000	      0.00000000	      0.00000000
      2.63000000	     65.42806666	      4.62291366	     -1.42078164	      0.76918103	      1.02753877	     -0.28825857	      0.43417977	    -11.10030476	     -1.68780207	    -68.67751565	     18.97530503	     -6.85483538	    -28.41368446	     -1.28492754	     -2.53019355	    -12.37597881	    -65.87521488	     11.65755928	     -1.38415451	 -40269.58493220	      0.00000000	      0.00000000	      0.00000000
      2.64000000	     65.42492684	      4.64568614	     -1.41076785	      0.76932923	      1.02739012	     -0.28839719	      0.42303120	    -11.10677875	     -1.69605720	    -68.86375943	     19.00360966	     -6.84514266	    -28.34474023	     -1.26356566	     -2.53181549	    -12.38823998	    -65.85064870	     12.81001828	     -1.95107854	 -41820.91341055	      0.00000000	      0.00000000	      0.00000000
      2.65000000	     65.40861232	      4.65018436	     -1.40210565	      0.76944338	      1.02705097	     -0.28837729	      0.42266606	    -11.11182468	     -1.70242426	    -68.99027294	     19.02326439	     -6.85023314	    -28.30629813	     -1.27476125	     -2.52370827	    -12.39370166	    -65.80319050	     13.79556560	     -2.46716141	 -43402.60796040	      0.00000000	      0.00000000	      0.00000000
      2.66000000	     65.40130276	      4.65237578	     -1.40493663	      0.76948348	      1.02683765	     -0.28830690	      0.41674611	    -11.11325078	     -1.70503648	    -69.04883427	     19.03338550	     -6.87031739	    -28.29926596	     -1.29105919	     -2.51157177	    -12.39256297	    -65.74376519	     14.37898491	     -2.81746653	 -45014.05508921	      0.00000000	      0.00000000	      0.00000000
      2.67000000	     65.41577719	      4.66588443	     -1.42194200	      0.76950935	      1.02687529	     -0.28837900	      0.39393451	    -11.10698045	     -1.70362200	    -69.03310477	     19.03318365	     -6.90403012	    -28.32098059	     -1.29507559	     -2.50148841	    -12.38620621	    -65.68431666	     14.40829103	     -2.91726864	 -46654.53425228	      0.00000000	      0.00000000	      0.00000000
      2.68000000	     65.44150282	      4.68048417	     -1.43998471	      0.76942258	      1.02719760	     -0.28848155	      0.35942631	    -11.08669644	     -1.70086020	    -68.94616706	     19.02218904	     -6.94807681	    -28.36646568	     -1.30074728	     -2.48664229	    -12.37738658	    -65.63144418	     13.84543410	     -2.72844682	 -48323.18053820	      0.00000000	      0.00000000	      0.00000000
      2.69000000	     65.45526591	      4.67450572	     -1.44392016	      0.76918122	      1.02752693	     -0.28838714	      0.32927467	    -11.05020243	     -1.70029064	    -68.80146852	     19.00015058	     -6.99758810	    -28.42947457	     -1.33808066	     -2.46439272	    -12.36222297	    -65.57596806	     12.78556143	     -2.27189068	 -50018.94799979	      0.00000000	      0.00000000	      0.00000000
      2.70000000	     65.45048529	      4.64555668	     -1.43713304	      0.76903380	      1.02748397	     -0.28819918	      0.31421936	    -11.00531400	     -1.70314539	    -68.61529301	     18.96683664	     -7.04690386	    -28.50318964	     -1.41305169	     -2.45914763	    -12.32650046	    -65.49342053	     11.45881200	     -1.63098640	 -51740.57648169	      0.00000000	      0.00000000	      0.00000000
      2.71000000	     65.44523088	      4.61212748	     -1.43651211	      0.76918135	      1.02716923	     -0.28819244	      0.31082683	    -10.96497763	     -1.70847151	    -68.39469365	     18.92228579	     -7.09039828	    -28.58077936	     -1.49577634	     -2.50175608	    -12.26258375	    -65.37252703	     10.19475357	     -0.93609142	 -53486.56419738	      0.00000000	      0.00000000	      0.00000000
      2.72000000	     65.45435248	      4.58673600	     -1.44749054	      0.76946414	      1.02694832	     -0.28836210	      0.30710486	    -10.93506616	     -1.71619431	    -68.13034101	     18.86772268	     -7.12343299	    -28.65603836	     -1.55572646	     -2.58475645	    -12.18980807	    -65.24637286	      9.33800637	     -0.33127027	 -55255.14745910	      0.00000000	      0.00000000	      0.00000000
